<svg width="32" height="32" viewBox="0 0 32 32" fill="none" xmlns="http://www.w3.org/2000/svg">
<path d="M5.33331 13.3333L3.9191 14.7475L2.50488 13.3333L3.9191 11.9191L5.33331 13.3333ZM28.6666 24C28.6666 25.1046 27.7712 26 26.6666 26C25.5621 26 24.6666 25.1046 24.6666 24L28.6666 24ZM12 20L10.5858 21.4142L3.9191 14.7475L5.33331 13.3333L6.74753 11.9191L13.4142 18.5858L12 20ZM5.33331 13.3333L3.9191 11.9191L10.5858 5.25245L12 6.66667L13.4142 8.08088L6.74753 14.7475L5.33331 13.3333ZM5.33331 13.3333L5.33331 11.3333L20.6666 11.3333L20.6666 13.3333L20.6666 15.3333L5.33331 15.3333L5.33331 13.3333ZM26.6666 19.3333L28.6666 19.3333L28.6666 24L26.6666 24L24.6666 24L24.6666 19.3333L26.6666 19.3333ZM20.6666 13.3333L20.6666 11.3333C25.0849 11.3333 28.6666 14.9151 28.6666 19.3333L26.6666 19.3333L24.6666 19.3333C24.6666 17.1242 22.8758 15.3333 20.6666 15.3333L20.6666 13.3333Z" fill="#484135"/>
</svg>
