<svg width="48" height="48" viewBox="0 0 48 48" fill="none" xmlns="http://www.w3.org/2000/svg">
<path d="M6 10C6 7.79086 7.79086 6 10 6H38C40.2091 6 42 7.79086 42 10V38C42 40.2091 40.2091 42 38 42H10C7.79086 42 6 40.2091 6 38V10Z" stroke="#484135" stroke-width="3"/>
<path d="M6 30L13.3055 22.6945C14.1878 21.8122 15.6538 21.9443 16.3641 22.9703L22.7664 32.2178C23.4311 33.1778 24.7735 33.3667 25.6773 32.6272L33.5991 26.1459C34.3944 25.4952 35.5533 25.5531 36.2798 26.2796L42 32" stroke="#484135" stroke-width="3"/>
<circle cx="32" cy="16" r="4" fill="#484135"/>
</svg>
